<svg width="1136" height="610" viewBox="0 0 1136 610" fill="none" xmlns="http://www.w3.org/2000/svg">
<g clip-path="url(#clip0_5_23)">
<path d="M443.24 354.74C429.92 357.09 419.12 368.49 416.51 381.62C414.84 390.08 415.29 399.13 418.62 407.15C422.65 416.71 431.22 424.38 441.39 426.76C451.37 429.09 462.68 427.62 470.8 421.04C478.92 414.69 483.47 404.55 483.95 394.36C484.84 383.03 481.64 370.87 473.16 362.91C465.46 355.2 453.73 352.73 443.24 354.75V354.74ZM350.61 354.75C339.29 356.75 329.94 365.67 326.29 376.42C323.52 384.64 323.33 393.67 325.3 402.1C327.86 412.89 335.86 422.54 346.52 426.05C358.29 429.83 372.32 427.55 381.33 418.77C389.23 411.57 392.85 400.66 392.49 390.15C392.53 380.03 388.59 369.8 381 362.97C373.09 355.27 361.26 352.69 350.61 354.75ZM392.3 289C394.36 289 396.42 289 398.48 289H401.75C406.36 289 410.96 289 415.57 289C415.57 310.54 415.57 332.07 415.57 353.61C420.52 345.85 427.48 339.17 436.03 335.55C446.08 331.28 457.53 330.85 468.09 333.34C478.8 335.89 488.14 342.66 494.87 351.27C502.06 360.24 506.1 371.48 507.16 382.86C508.34 395.61 506.94 408.89 501.31 420.52C496.82 429.73 489.83 437.82 481.07 443.19C469.77 450.07 455.69 451.55 442.93 448.62C431.6 446.04 421.93 438.44 415.56 428.88C415.58 451.44 415.56 474.01 415.56 496.58H392.29C392.29 474.02 392.29 451.44 392.29 428.88C387.21 436.6 380.1 443.16 371.45 446.62C361.56 450.59 350.43 450.94 340.09 448.63C327.79 445.86 317.04 437.74 310.28 427.19C303.13 416.31 300.34 403.07 300.51 390.17C300.56 378.01 303.4 365.63 310.11 355.37C316.68 345.2 326.62 336.91 338.41 333.71C348.79 330.93 360.1 331.14 370.23 334.84C379.53 338.25 387.15 345.28 392.29 353.63C392.28 332.09 392.29 310.55 392.29 289.01L392.3 289Z" fill="#ffffff"/>
<path d="M37.0002 303.42C44.7602 303.42 52.5102 303.42 60.2702 303.42C60.2702 321.17 60.2702 338.92 60.2702 356.68C60.4102 365.85 59.7502 375 59.4502 384.16C59.0402 394.3 58.6302 404.43 58.2202 414.57C82.2302 377.52 106.22 340.46 130.22 303.42C139.35 303.42 148.47 303.42 157.59 303.42V447.57H134.32V393.69C134.2 385.14 134.87 376.6 135.17 368.05C135.64 357.44 136.11 346.84 136.58 336.23C112.51 373.34 88.4402 410.46 64.3802 447.58C55.2502 447.58 46.1202 447.58 36.9902 447.58V303.42H37.0002Z" fill="#ffffff"/>
<path d="M178.83 334.31H202.1C202.1 349.13 202.1 363.96 202.1 378.78H249.5C249.5 386.13 249.5 393.49 249.5 400.84H202.1C202.1 416.42 202.1 432 202.1 447.58C194.34 447.58 186.59 447.58 178.83 447.58C178.83 409.83 178.83 372.07 178.83 334.31Z" fill="#ffffff"/>
<path d="M262.16 334.31H285.43C285.43 372.07 285.43 409.82 285.43 447.57H262.16C262.13 429.62 262.25 411.66 262.04 393.71C262.14 373.91 262.18 354.11 262.16 334.3V334.31Z" fill="#ffffff"/>
<path d="M522.67 447.57C522.67 409.82 522.67 372.06 522.67 334.31H545.94C545.94 349.94 545.94 365.56 545.94 381.18C545.51 393.2 544.97 405.22 544.51 417.24C563.15 389.6 581.8 361.95 600.45 334.31H627.83V447.57H604.56C604.57 431.81 604.54 416.04 604.58 400.27C605.02 388.32 605.52 376.37 606.01 364.42C587.36 392.14 568.71 419.86 550.05 447.57C540.92 447.57 531.81 447.57 522.68 447.57H522.67Z" fill="#ffffff"/>
<path d="M646.47 334.31H669.74V378.78H717.23V400.84H669.74C669.73 416.42 669.74 432 669.74 447.58H646.47C646.47 409.83 646.47 372.07 646.47 334.32V334.31Z" fill="#ffffff"/>
<path d="M729.79 334.31H753.06V447.58C745.3 447.58 737.55 447.58 729.8 447.58C729.78 409.83 729.78 372.07 729.8 334.31H729.79Z" fill="#ffffff"/>
<path d="M771.87 447.57C771.86 409.81 771.86 372.06 771.87 334.31H795.14C795.14 349.92 795.14 365.54 795.14 381.15C794.71 393.18 794.16 405.2 793.7 417.23C812.35 389.59 830.99 361.94 849.65 334.3C858.77 334.3 867.89 334.3 877.03 334.3V447.56C869.27 447.56 861.52 447.56 853.76 447.56C853.76 431.8 853.74 416.03 853.76 400.25C854.2 388.3 854.72 376.36 855.18 364.41C836.52 392.13 817.89 419.84 799.23 447.56C790.1 447.56 780.98 447.56 771.87 447.56V447.57Z" fill="#ffffff"/>
<path d="M887 334.31H984.16V356.14C951.77 356.16 919.39 356.15 887 356.14C887 348.87 886.98 341.59 887 334.31Z" fill="#ffffff"/>
<path d="M994.32 334.31H1017.58C1017.58 350.12 1017.6 365.94 1017.58 381.75C1017.15 393.58 1016.63 405.41 1016.17 417.25C1034.82 389.61 1053.45 361.96 1072.11 334.32H1099.49C1099.5 372.08 1099.5 409.83 1099.5 447.58C1091.73 447.58 1083.98 447.58 1076.21 447.58V416.43C1075.92 399.08 1077.07 381.76 1077.66 364.43C1059.01 392.14 1040.37 419.86 1021.72 447.57C1012.58 447.57 1003.47 447.57 994.33 447.57C994.33 409.81 994.33 372.06 994.33 334.31H994.32Z" fill="#ffffff"/>
<path d="M924.04 368.71C931.81 368.71 939.55 368.71 947.32 368.71V447.57C939.55 447.57 931.81 447.57 924.04 447.57V368.71Z" fill="#ffffff"/>
</g>
<g clip-path="url(#clip1_5_23)">
<path d="M432.36 13.7799C461.99 7.4799 493.8 11.9799 520.44 26.4399C533.48 33.3699 545.03 42.8299 555.15 53.5499C545.86 62.8499 536.55 72.1599 527.24 81.4599C517.99 71.5699 507.14 62.9999 494.57 57.7599C474.5 49.0799 451.23 48.1499 430.51 55.1499C410.23 61.8699 392.62 76.1999 381.82 94.6299C371.3 112.41 367.3 133.9 370.57 154.29C373.6 173.87 383.4 192.31 397.93 205.79C412.59 219.57 432.04 228.09 452.11 229.58C472.93 231.27 494.28 225.39 511.24 213.16C516.84 209.23 521.78 204.46 526.53 199.56C557.13 168.98 587.69 138.34 618.31 107.77C627.61 117.07 636.9 126.37 646.2 135.67C614.27 167.64 582.33 199.61 550.4 231.56C532.89 249.13 510.22 261.45 485.95 266.52C459.35 272.18 430.97 269.21 406.16 258.04C379.21 246.03 356.71 224.39 343.58 197.97C331.7 174.27 327.47 146.9 331.46 120.73C335.42 93.9399 348.14 68.5499 367.23 49.3399C384.83 31.4399 407.78 18.8799 432.36 13.7799Z" fill="#ffffff"/>
<path d="M587.84 47.2999C610.66 24.9799 642.08 11.8199 673.99 11.0599C706.6 10.0099 739.43 21.9 763.66 43.7799C786.95 64.4799 802.37 93.8199 805.86 124.81C809.57 155.56 801.92 187.58 784.26 213.07C768.45 236.12 745.11 254 718.53 262.79C685.63 273.81 648.29 270.94 617.61 254.66C604.14 247.67 592.21 238.05 581.8 227.05C591.09 217.73 600.43 208.46 609.75 199.17C619.13 209.19 630.21 217.8 643 223C662.88 231.37 685.8 232.15 706.23 225.24C730.61 217.13 751 197.93 760.65 174.11C768.86 154.12 769.46 131.15 762.36 110.75C752.78 82.5199 728.18 59.9999 699.15 53.0999C669.78 45.6299 636.92 54.3499 615.31 75.6399C580.57 110.34 545.88 145.08 511.19 179.82C501.84 170.53 492.48 161.25 483.25 151.84C518.16 117.04 552.93 82.1 587.83 47.29L587.84 47.2999Z" fill="#ffffff"/>
</g>
<path d="M42.7367 505.351H74.312V551.74H65.2706V513.141H51.7781V533.727C51.7781 535.489 51.7549 536.811 51.7085 537.692C51.6622 538.572 51.4999 539.824 51.2217 541.447C50.9435 543.07 50.4335 544.507 49.6916 545.759C48.9498 546.965 47.9761 548.078 46.7706 549.098C44.3595 551.138 41.2762 552.158 37.5205 552.158C36.2223 552.158 34.9472 552.019 33.6953 551.74V543.951C34.6226 544.229 35.4804 544.368 36.2686 544.368C37.9378 544.368 39.3288 543.812 40.4416 542.699C41.1834 541.957 41.7166 540.937 42.0412 539.639C42.4121 538.341 42.6208 537.228 42.6672 536.301C42.7135 535.373 42.7367 533.913 42.7367 531.919V505.351Z" fill="#ffffff"/>
<path d="M92.1112 532.962H96.2146C96.7246 529.856 98.1619 527.166 100.527 524.894C103.494 522.066 107.412 520.652 112.28 520.652C117.195 520.652 121.183 522.066 124.243 524.894C127.581 527.908 129.25 531.849 129.25 536.718C129.25 541.447 127.581 545.365 124.243 548.472C121.183 551.3 117.195 552.714 112.28 552.714C107.458 552.714 103.54 551.3 100.527 548.472C98.1619 546.2 96.7246 543.441 96.2146 540.195H92.1112V551.74H83.6262V521.626H92.1112V532.962ZM106.369 542.769C107.945 544.391 109.916 545.203 112.28 545.203C114.645 545.203 116.592 544.391 118.123 542.769C119.699 541.099 120.487 539.082 120.487 536.718C120.487 534.307 119.699 532.29 118.123 530.667C116.592 528.998 114.645 528.163 112.28 528.163C109.916 528.163 107.945 528.998 106.369 530.667C104.839 532.29 104.074 534.307 104.074 536.718C104.074 539.082 104.839 541.099 106.369 542.769Z" fill="#ffffff"/>
<path d="M159.852 501.665H167.642C166.714 507.229 163.422 510.846 157.766 512.515L154.636 513.419C154.404 513.465 153.732 513.651 152.619 513.975C151.553 514.253 150.741 514.485 150.185 514.671C149.675 514.856 149.002 515.158 148.168 515.575C147.333 515.992 146.638 516.479 146.081 517.035C144.041 518.936 142.905 521.51 142.673 524.755H142.812C143.879 523.364 145.386 522.344 147.333 521.695C149.281 521 151.297 520.652 153.384 520.652C158.021 520.652 161.776 522.066 164.651 524.894C167.757 527.862 169.311 531.757 169.311 536.579C169.311 541.401 167.618 545.365 164.234 548.472C161.127 551.3 157.14 552.714 152.271 552.714C147.171 552.714 143.16 551.393 140.239 548.75C136.623 545.504 134.814 540.427 134.814 533.519C134.814 524.199 136.344 517.43 139.405 513.21C140.61 511.541 142.117 510.173 143.925 509.107C145.734 507.994 147.217 507.275 148.376 506.951C149.536 506.58 151.066 506.209 152.967 505.838C155.192 505.374 156.792 504.841 157.766 504.238C158.786 503.589 159.481 502.731 159.852 501.665ZM145.942 542.769C147.565 544.391 149.605 545.203 152.063 545.203C154.52 545.203 156.537 544.391 158.113 542.769C159.736 541.146 160.548 539.129 160.548 536.718C160.548 534.26 159.759 532.22 158.183 530.597C156.606 528.975 154.566 528.163 152.063 528.163C149.559 528.163 147.519 528.975 145.942 530.597C144.366 532.22 143.578 534.26 143.578 536.718C143.578 539.129 144.366 541.146 145.942 542.769Z" fill="#ffffff"/>
<path d="M175.86 521.626H184.345V540.195L198.255 521.626H206.74V551.74H198.255V533.171L184.345 551.74H175.86V521.626Z" fill="#ffffff"/>
<path d="M211.579 551.74L217.073 521.626H223.333L231.609 538.943L239.885 521.626H246.145L251.639 551.74H243.154L240.65 535.396L233.139 551.74H230.079L222.567 535.396L220.064 551.74H211.579Z" fill="#ffffff"/>
<path d="M260.774 524.894C263.835 522.066 267.892 520.652 272.946 520.652C277.999 520.652 282.056 522.066 285.117 524.894C288.501 527.955 290.194 531.896 290.194 536.718C290.194 541.494 288.501 545.411 285.117 548.472C282.056 551.3 277.999 552.714 272.946 552.714C267.892 552.714 263.835 551.3 260.774 548.472C257.39 545.411 255.697 541.494 255.697 536.718C255.697 531.896 257.39 527.955 260.774 524.894ZM266.895 542.699C268.518 544.368 270.534 545.203 272.946 545.203C275.357 545.203 277.373 544.368 278.996 542.699C280.619 541.03 281.431 539.036 281.431 536.718C281.431 534.353 280.619 532.336 278.996 530.667C277.373 528.998 275.357 528.163 272.946 528.163C270.534 528.163 268.518 528.998 266.895 530.667C265.272 532.336 264.461 534.353 264.461 536.718C264.461 539.036 265.272 541.03 266.895 542.699Z" fill="#ffffff"/>
<path d="M318.525 542.073L326.315 543.325C325.99 544.16 325.55 544.994 324.993 545.829C324.483 546.617 323.672 547.614 322.559 548.819C321.446 549.979 319.939 550.929 318.038 551.671C316.137 552.366 313.958 552.714 311.501 552.714C306.771 552.714 302.923 551.3 299.956 548.472C296.803 545.504 295.226 541.586 295.226 536.718C295.226 531.896 296.756 527.955 299.816 524.894C302.691 522.066 306.47 520.652 311.153 520.652C316.253 520.652 320.171 522.298 322.907 525.59C325.318 528.465 326.523 532.406 326.523 537.413V538.109H303.989C303.989 540.149 304.476 541.841 305.45 543.186C306.841 545.087 308.858 546.037 311.501 546.037C314.654 546.037 316.995 544.716 318.525 542.073ZM304.268 532.684H318.525C318.201 530.737 317.343 529.253 315.952 528.233C314.607 527.166 313.077 526.633 311.362 526.633C309.692 526.633 308.162 527.166 306.771 528.233C305.427 529.299 304.592 530.783 304.268 532.684Z" fill="#ffffff"/>
<path d="M346.126 551.74L351.621 521.626H357.88L366.157 538.943L374.433 521.626H380.692L386.187 551.74H377.702L375.198 535.396L367.687 551.74H364.627L357.115 535.396L354.611 551.74H346.126Z" fill="#ffffff"/>
<path d="M412.797 542.073L420.586 543.325C420.262 544.16 419.821 544.994 419.265 545.829C418.755 546.617 417.944 547.614 416.831 548.819C415.718 549.979 414.211 550.929 412.31 551.671C410.409 552.366 408.23 552.714 405.772 552.714C401.043 552.714 397.195 551.3 394.227 548.472C391.074 545.504 389.498 541.586 389.498 536.718C389.498 531.896 391.028 527.955 394.088 524.894C396.963 522.066 400.742 520.652 405.425 520.652C410.525 520.652 414.443 522.298 417.178 525.59C419.59 528.465 420.795 532.406 420.795 537.413V538.109H398.261C398.261 540.149 398.748 541.841 399.722 543.186C401.113 545.087 403.13 546.037 405.772 546.037C408.925 546.037 411.267 544.716 412.797 542.073ZM398.539 532.684H412.797C412.472 530.737 411.615 529.253 410.224 528.233C408.879 527.166 407.349 526.633 405.633 526.633C403.964 526.633 402.434 527.166 401.043 528.233C399.698 529.299 398.864 530.783 398.539 532.684Z" fill="#ffffff"/>
<path d="M450.038 522.46V530.806C448.137 529.044 445.818 528.163 443.083 528.163C440.394 528.163 438.307 528.998 436.823 530.667C435.34 532.29 434.598 534.284 434.598 536.648C434.598 539.106 435.409 541.146 437.032 542.769C438.701 544.391 440.811 545.203 443.361 545.203C445.865 545.203 448.09 544.322 450.038 542.56V550.836C447.534 552.088 444.937 552.714 442.248 552.714C437.565 552.714 433.694 551.254 430.634 548.333C427.434 545.319 425.835 541.47 425.835 536.787C425.835 531.687 427.573 527.607 431.051 524.547C433.972 521.95 437.588 520.652 441.901 520.652C444.822 520.652 447.534 521.255 450.038 522.46Z" fill="#ffffff"/>
<path d="M479.624 528.859H471.279V551.74H462.793V528.859H454.448V521.626H479.624V528.859Z" fill="#ffffff"/>
<path d="M487.624 524.894C490.684 522.066 494.741 520.652 499.795 520.652C504.849 520.652 508.906 522.066 511.966 524.894C515.351 527.955 517.043 531.896 517.043 536.718C517.043 541.494 515.351 545.411 511.966 548.472C508.906 551.3 504.849 552.714 499.795 552.714C494.741 552.714 490.684 551.3 487.624 548.472C484.239 545.411 482.547 541.494 482.547 536.718C482.547 531.896 484.239 527.955 487.624 524.894ZM493.745 542.699C495.367 544.368 497.384 545.203 499.795 545.203C502.206 545.203 504.223 544.368 505.846 542.699C507.469 541.03 508.28 539.036 508.28 536.718C508.28 534.353 507.469 532.336 505.846 530.667C504.223 528.998 502.206 528.163 499.795 528.163C497.384 528.163 495.367 528.998 493.745 530.667C492.122 532.336 491.31 534.353 491.31 536.718C491.31 539.036 492.122 541.03 493.745 542.699Z" fill="#ffffff"/>
<path d="M562.512 522.46V530.806C560.611 529.044 558.292 528.163 555.557 528.163C552.868 528.163 550.781 528.998 549.297 530.667C547.814 532.29 547.072 534.284 547.072 536.648C547.072 539.106 547.883 541.146 549.506 542.769C551.175 544.391 553.285 545.203 555.835 545.203C558.339 545.203 560.564 544.322 562.512 542.56V550.836C560.008 552.088 557.412 552.714 554.722 552.714C550.039 552.714 546.168 551.254 543.108 548.333C539.908 545.319 538.309 541.47 538.309 536.787C538.309 531.687 540.047 527.607 543.525 524.547C546.446 521.95 550.062 520.652 554.375 520.652C557.296 520.652 560.008 521.255 562.512 522.46Z" fill="#ffffff"/>
<path d="M586.017 551.74V541.447C583.606 541.911 581.242 542.143 578.923 542.143C575.26 542.143 572.455 541.215 570.508 539.361C568.699 537.645 567.795 535.28 567.795 532.267V521.626H576.28V530.528C576.28 532.058 576.628 533.148 577.324 533.797C578.112 534.539 579.549 534.91 581.636 534.91C583.027 534.91 584.487 534.77 586.017 534.492V521.626H594.502V551.74H586.017Z" fill="#ffffff"/>
<path d="M625.686 525.52V521.626H634.171V551.74H625.686V547.846C623.414 551.091 620.331 552.714 616.436 552.714C611.892 552.714 608.183 551.161 605.308 548.054C602.48 544.948 601.066 541.146 601.066 536.648C601.066 532.104 602.457 528.302 605.239 525.242C608.021 522.182 611.614 520.652 616.019 520.652C620.377 520.652 623.6 522.275 625.686 525.52ZM624.156 530.597C622.58 528.975 620.586 528.163 618.175 528.163C615.764 528.163 613.77 528.975 612.194 530.597C610.617 532.22 609.829 534.237 609.829 536.648C609.829 539.059 610.617 541.099 612.194 542.769C613.77 544.391 615.764 545.203 618.175 545.203C620.586 545.203 622.58 544.391 624.156 542.769C625.733 541.099 626.521 539.059 626.521 536.648C626.521 534.237 625.733 532.22 624.156 530.597Z" fill="#ffffff"/>
<path d="M664.934 522.46V530.806C663.033 529.044 660.714 528.163 657.979 528.163C655.29 528.163 653.203 528.998 651.719 530.667C650.236 532.29 649.494 534.284 649.494 536.648C649.494 539.106 650.305 541.146 651.928 542.769C653.597 544.391 655.707 545.203 658.257 545.203C660.761 545.203 662.986 544.322 664.934 542.56V550.836C662.43 552.088 659.834 552.714 657.144 552.714C652.461 552.714 648.59 551.254 645.53 548.333C642.33 545.319 640.731 541.47 640.731 536.787C640.731 531.687 642.469 527.607 645.947 524.547C648.868 521.95 652.485 520.652 656.797 520.652C659.718 520.652 662.43 521.255 664.934 522.46Z" fill="#ffffff"/>
<path d="M694.52 528.859H686.174V551.74H677.69V528.859H669.344V521.626H694.52V528.859Z" fill="#ffffff"/>
<path d="M725.001 521.626V551.74H716.516V528.859H708.309V539.917C708.309 543.812 707.359 546.779 705.458 548.819C703.557 550.952 700.844 552.019 697.32 552.019C696.393 552.019 695.558 551.926 694.817 551.74V544.507C695.373 544.6 695.813 544.646 696.138 544.646C697.668 544.646 698.827 544.16 699.615 543.186C700.311 542.351 700.659 541.076 700.659 539.361V521.626H725.001Z" fill="#ffffff"/>
<path d="M733.069 521.626H741.554V540.195L755.463 521.626H763.948V551.74H755.463V533.171L741.554 551.74H733.069V521.626Z" fill="#ffffff"/>
<path d="M771.986 521.626H785.27C788.469 521.626 790.857 522.228 792.434 523.434C794.381 524.918 795.355 526.888 795.355 529.346C795.355 530.644 794.984 531.873 794.242 533.032C793.547 534.144 792.526 534.979 791.182 535.535C792.666 535.814 793.987 536.463 795.146 537.483C796.676 538.874 797.441 540.752 797.441 543.116C797.441 545.945 796.375 548.17 794.242 549.793C792.48 551.091 790.231 551.74 787.496 551.74H771.986V521.626ZM780.471 533.588H784.366C785.247 533.588 785.989 533.403 786.592 533.032C787.333 532.568 787.704 531.873 787.704 530.945C787.704 529.972 787.38 529.253 786.731 528.789C786.267 528.465 785.432 528.302 784.227 528.302H780.471V533.588ZM780.471 545.064H784.436C785.873 545.064 786.916 544.809 787.565 544.299C788.307 543.742 788.678 542.931 788.678 541.864C788.678 540.891 788.307 540.172 787.565 539.708C786.916 539.245 785.942 539.013 784.644 539.013H780.471V545.064Z" fill="#ffffff"/>
<path d="M803.704 521.626H812.189V532.336H818.797C822.32 532.336 825.01 533.356 826.864 535.396C828.394 537.019 829.159 539.175 829.159 541.864C829.159 545.156 828.093 547.707 825.96 549.515C824.245 550.999 821.996 551.74 819.214 551.74H803.704V521.626ZM812.189 545.064H816.154C817.591 545.064 818.634 544.809 819.283 544.299C820.025 543.742 820.396 542.931 820.396 541.864C820.396 540.891 820.025 540.172 819.283 539.708C818.634 539.245 817.661 539.013 816.362 539.013H812.189V545.064ZM832.359 521.626H840.844V551.74H832.359V521.626Z" fill="#ffffff"/>
<path d="M845.044 551.74L859.371 535.327L847.826 521.626H858.536L864.657 529.415L870.916 521.626H881.627L869.873 535.327L884.13 551.74H873.281L864.657 541.239L855.893 551.74H845.044Z" fill="#ffffff"/>
<path d="M931.271 521.626V551.74H922.786V528.859H914.579V539.917C914.579 543.812 913.629 546.779 911.728 548.819C909.827 550.952 907.114 552.019 903.591 552.019C902.663 552.019 901.829 551.926 901.087 551.74V544.507C901.643 544.6 902.084 544.646 902.408 544.646C903.938 544.646 905.098 544.16 905.886 543.186C906.581 542.351 906.929 541.076 906.929 539.361V521.626H931.271Z" fill="#ffffff"/>
<path d="M947.824 532.962H951.927C952.437 529.856 953.875 527.166 956.239 524.894C959.207 522.066 963.125 520.652 967.993 520.652C972.908 520.652 976.895 522.066 979.956 524.894C983.294 527.908 984.963 531.849 984.963 536.718C984.963 541.447 983.294 545.365 979.956 548.472C976.895 551.3 972.908 552.714 967.993 552.714C963.171 552.714 959.253 551.3 956.239 548.472C953.875 546.2 952.437 543.441 951.927 540.195H947.824V551.74H939.339V521.626H947.824V532.962ZM962.081 542.769C963.658 544.391 965.628 545.203 967.993 545.203C970.358 545.203 972.305 544.391 973.835 542.769C975.412 541.099 976.2 539.082 976.2 536.718C976.2 534.307 975.412 532.29 973.835 530.667C972.305 528.998 970.358 528.163 967.993 528.163C965.628 528.163 963.658 528.998 962.081 530.667C960.551 532.29 959.786 534.307 959.786 536.718C959.786 539.082 960.551 541.099 962.081 542.769Z" fill="#ffffff"/>
<path d="M994.283 521.626H1019.32V544.507H1023.77V560.504H1016.12V551.74H995.396V560.504H987.745V544.507C990.11 544.368 991.895 543.093 993.1 540.682C993.889 538.967 994.283 536.393 994.283 532.962V521.626ZM1010.84 544.507V528.859H1001.93V535.535C1001.93 539.616 1000.82 542.606 998.595 544.507H1010.84Z" fill="#ffffff"/>
<path d="M1050.15 542.073L1057.94 543.325C1057.61 544.16 1057.17 544.994 1056.62 545.829C1056.11 546.617 1055.3 547.614 1054.18 548.819C1053.07 549.979 1051.56 550.929 1049.66 551.671C1047.76 552.366 1045.58 552.714 1043.13 552.714C1038.4 552.714 1034.55 551.3 1031.58 548.472C1028.43 545.504 1026.85 541.586 1026.85 536.718C1026.85 531.896 1028.38 527.955 1031.44 524.894C1034.32 522.066 1038.09 520.652 1042.78 520.652C1047.88 520.652 1051.8 522.298 1054.53 525.59C1056.94 528.465 1058.15 532.406 1058.15 537.413V538.109H1035.61C1035.61 540.149 1036.1 541.841 1037.07 543.186C1038.47 545.087 1040.48 546.037 1043.13 546.037C1046.28 546.037 1048.62 544.716 1050.15 542.073ZM1035.89 532.684H1050.15C1049.83 530.737 1048.97 529.253 1047.58 528.233C1046.23 527.166 1044.7 526.633 1042.99 526.633C1041.32 526.633 1039.79 527.166 1038.4 528.233C1037.05 529.299 1036.22 530.783 1035.89 532.684Z" fill="#ffffff"/>
<path d="M1064.72 521.626H1073.2V540.195L1087.11 521.626H1095.6V551.74H1087.11V533.171L1073.2 551.74H1064.72V521.626ZM1086 506.533L1091.56 509.176C1090.64 511.773 1089.08 513.627 1086.9 514.74C1084.72 515.807 1082.48 516.34 1080.16 516.34C1077.84 516.34 1075.59 515.807 1073.41 514.74C1071.23 513.627 1069.68 511.773 1068.75 509.176L1074.32 506.533C1074.59 507.785 1075.27 508.829 1076.33 509.663C1077.45 510.498 1078.72 510.915 1080.16 510.915C1081.5 510.915 1082.73 510.544 1083.84 509.802C1084.96 509.06 1085.67 507.971 1086 506.533Z" fill="#ffffff"/>
<defs>
<clipPath id="clip0_5_23">
<rect width="1062.49" height="207.57" fill="white" transform="translate(37 289)"/>
</clipPath>
<clipPath id="clip1_5_23">
<rect width="476.78" height="258.38" fill="white" transform="translate(330 11)"/>
</clipPath>
</defs>
</svg>
